<svg width="233" height="69" viewBox="0 0 233 69" fill="none" xmlns="http://www.w3.org/2000/svg">
<rect width="67.8302" height="67.7795" rx="12.2382" fill="#4200FF"/>
<g filter="url(#filter0_di_333_2)">
<path d="M14.8079 53.0779L11.6689 38.9526C11.0155 36.0121 13.253 33.2228 16.2652 33.2228H51.6104C54.6226 33.2228 56.8602 36.0121 56.2067 38.9526L53.0678 53.0779C52.589 55.2322 50.6783 56.765 48.4714 56.765H19.4042C17.1974 56.765 15.2866 55.2322 14.8079 53.0779Z" fill="#809FFF"/>
</g>
<g filter="url(#filter1_di_333_2)">
<path d="M16.1013 22.2712C1.97585 22.2712 1.97583 43.4591 16.1013 43.4592L51.4145 43.4591C65.5398 43.4591 65.5398 24.6254 53.7697 24.6254C53.7697 6.96878 32.5807 8.1459 30.2276 18.7399C25.518 14.0314 17.2783 16.3857 16.1013 22.2712Z" fill="url(#paint0_linear_333_2)"/>
<path d="M16.1013 22.2712C1.97585 22.2712 1.97583 43.4591 16.1013 43.4592L51.4145 43.4591C65.5398 43.4591 65.5398 24.6254 53.7697 24.6254C53.7697 6.96878 32.5807 8.1459 30.2276 18.7399C25.518 14.0314 17.2783 16.3857 16.1013 22.2712Z" stroke="black"/>
</g>
<g filter="url(#filter2_i_333_2)">
<path d="M23.1758 47.0117C29.0845 52.7997 37.2113 49.8969 41.0798 47.4126C41.2843 47.2776 41.4823 47.1437 41.6732 47.0117C41.4888 47.1431 41.2906 47.2772 41.0798 47.4126C35.3776 51.1786 24.6795 55.8499 23.1758 47.0117Z" fill="white"/>
</g>
<path d="M74.134 68.3636C76.4342 68.3636 78.2465 66.5513 78.2465 64.3208C78.2465 62.0206 76.4342 60.2083 74.134 60.2083C71.9034 60.2083 70.0911 62.0206 70.0911 64.3208C70.0911 66.5513 71.9034 68.3636 74.134 68.3636ZM100.603 33.7207C97.3966 33.7207 94.3993 34.5572 91.8203 36.0906V29.9567C91.8203 27.5867 89.9383 25.7047 87.5683 25.7047C85.2681 25.7047 83.3861 27.5867 83.3861 29.9567V63.9026C83.3861 66.2725 85.2681 68.1545 87.5683 68.1545C89.2412 68.1545 90.705 67.1787 91.4021 65.7149C94.0508 67.3878 97.1875 68.3636 100.603 68.3636C110.152 68.3636 117.89 60.6265 117.89 51.077C117.89 41.4579 110.152 33.7207 100.603 33.7207ZM100.603 59.9294C96.1419 59.9294 92.4476 56.5837 91.8203 52.3317C91.7506 51.9135 91.6809 51.4953 91.6809 51.077C91.6809 50.5891 91.7506 50.1709 91.8203 49.7526C92.4476 45.431 96.1419 42.1549 100.603 42.1549C105.482 42.1549 109.455 46.128 109.455 51.077C109.455 55.8866 105.482 59.9294 100.603 59.9294ZM152.363 32.8843C150.342 32.8843 148.669 34.348 148.251 36.2998C145.393 34.2783 141.908 33.0934 138.144 33.0934C128.594 33.0934 120.857 40.8305 120.857 50.38C120.857 59.9294 128.594 67.7363 138.144 67.7363C141.908 67.7363 145.323 66.5513 148.181 64.5299C148.39 66.6907 150.202 68.3636 152.363 68.3636C154.733 68.3636 156.615 66.4816 156.615 64.1117V37.1362C156.615 34.836 154.733 32.8843 152.363 32.8843ZM138.144 59.3021C133.264 59.3021 129.291 55.2593 129.291 50.38C129.291 45.5007 133.264 41.5276 138.144 41.5276C143.023 41.5276 146.996 45.5007 146.996 50.38C146.996 55.2593 143.023 59.3021 138.144 59.3021ZM178.373 50.3103L187.853 40.7608C189.526 39.0879 189.456 36.4392 187.853 34.7663C186.18 33.1631 183.462 33.1631 181.858 34.836L171.054 45.7098V30.1658C171.054 27.7959 169.172 25.9138 166.802 25.9138C164.502 25.9138 162.62 27.7959 162.62 30.1658V64.1814C162.62 66.4816 164.502 68.3636 166.802 68.3636C169.172 68.3636 171.054 66.4816 171.054 64.1814V57.6989L172.379 56.3745L181.161 66.7605C181.998 67.7363 183.183 68.2939 184.368 68.2939C185.344 68.2939 186.319 67.9454 187.086 67.2484C188.899 65.7846 189.108 63.0661 187.644 61.3235L178.373 50.3103ZM220.735 56.7231C218.992 55.1199 216.343 55.2593 214.81 57.0019C213.067 58.8839 210.697 59.9294 208.188 59.9294C207.003 59.9294 205.888 59.7203 204.842 59.3021L220.317 44.8037C221.153 44.0369 221.641 42.9216 221.641 41.7367C221.641 40.6214 221.223 39.5061 220.386 38.7394C217.11 35.4633 212.789 33.7207 208.188 33.7207C198.639 33.7207 190.901 41.4579 190.901 51.0073C190.901 60.6265 198.639 68.3636 208.188 68.3636C213.067 68.3636 217.737 66.2725 221.014 62.7176C222.617 60.975 222.477 58.2566 220.735 56.7231ZM199.336 51.0073C199.336 46.128 203.309 42.1549 208.188 42.1549C208.955 42.1549 209.722 42.2943 210.419 42.4337L199.475 52.7499C199.405 52.1923 199.336 51.6347 199.336 51.0073Z" fill="#EEEEEE"/>
<defs>
<filter id="filter0_di_333_2" x="11.5549" y="33.2228" width="44.7659" height="24.2221" filterUnits="userSpaceOnUse" color-interpolation-filters="sRGB">
<feFlood flood-opacity="0" result="BackgroundImageFix"/>
<feColorMatrix in="SourceAlpha" type="matrix" values="0 0 0 0 0 0 0 0 0 0 0 0 0 0 0 0 0 0 127 0" result="hardAlpha"/>
<feOffset dy="0.679901"/>
<feComposite in2="hardAlpha" operator="out"/>
<feColorMatrix type="matrix" values="0 0 0 0 0 0 0 0 0 0 0 0 0 0 0 0 0 0 0.25 0"/>
<feBlend mode="normal" in2="BackgroundImageFix" result="effect1_dropShadow_333_2"/>
<feBlend mode="normal" in="SourceGraphic" in2="effect1_dropShadow_333_2" result="shape"/>
<feColorMatrix in="SourceAlpha" type="matrix" values="0 0 0 0 0 0 0 0 0 0 0 0 0 0 0 0 0 0 127 0" result="hardAlpha"/>
<feOffset dy="-1.21003"/>
<feComposite in2="hardAlpha" operator="arithmetic" k2="-1" k3="1"/>
<feColorMatrix type="matrix" values="0 0 0 0 0 0 0 0 0 0 0 0 0 0 0 0 0 0 0.25 0"/>
<feBlend mode="normal" in2="shape" result="effect2_innerShadow_333_2"/>
</filter>
<filter id="filter1_di_333_2" x="5.5072" y="11.0144" width="56.8158" height="33.2606" filterUnits="userSpaceOnUse" color-interpolation-filters="sRGB">
<feFlood flood-opacity="0" result="BackgroundImageFix"/>
<feColorMatrix in="SourceAlpha" type="matrix" values="0 0 0 0 0 0 0 0 0 0 0 0 0 0 0 0 0 0 127 0" result="hardAlpha"/>
<feOffset dy="0.815881"/>
<feComposite in2="hardAlpha" operator="out"/>
<feColorMatrix type="matrix" values="0 0 0 0 0 0 0 0 0 0 0 0 0 0 0 0 0 0 0.25 0"/>
<feBlend mode="normal" in2="BackgroundImageFix" result="effect1_dropShadow_333_2"/>
<feBlend mode="normal" in="SourceGraphic" in2="effect1_dropShadow_333_2" result="shape"/>
<feColorMatrix in="SourceAlpha" type="matrix" values="0 0 0 0 0 0 0 0 0 0 0 0 0 0 0 0 0 0 127 0" result="hardAlpha"/>
<feOffset dy="-1.63176"/>
<feComposite in2="hardAlpha" operator="arithmetic" k2="-1" k3="1"/>
<feColorMatrix type="matrix" values="0 0 0 0 0 0 0 0 0 0 0 0 0 0 0 0 0 0 0.25 0"/>
<feBlend mode="normal" in2="shape" result="effect2_innerShadow_333_2"/>
</filter>
<filter id="filter2_i_333_2" x="23.1758" y="47.0117" width="18.4974" height="5.05493" filterUnits="userSpaceOnUse" color-interpolation-filters="sRGB">
<feFlood flood-opacity="0" result="BackgroundImageFix"/>
<feBlend mode="normal" in="SourceGraphic" in2="BackgroundImageFix" result="shape"/>
<feColorMatrix in="SourceAlpha" type="matrix" values="0 0 0 0 0 0 0 0 0 0 0 0 0 0 0 0 0 0 127 0" result="hardAlpha"/>
<feOffset dx="0.336317" dy="0.672634"/>
<feComposite in2="hardAlpha" operator="arithmetic" k2="-1" k3="1"/>
<feColorMatrix type="matrix" values="0 0 0 0 0 0 0 0 0 0 0 0 0 0 0 0 0 0 0.25 0"/>
<feBlend mode="normal" in2="shape" result="effect1_innerShadow_333_2"/>
</filter>
<linearGradient id="paint0_linear_333_2" x1="33.0815" y1="11.0144" x2="33.0815" y2="43.4592" gradientUnits="userSpaceOnUse">
<stop stop-color="#809FFF"/>
<stop offset="1" stop-color="#E180FF"/>
</linearGradient>
</defs>
</svg>
